<mxfile host="www.draw.io" modified="2019-12-03T06:44:27.426Z" agent="Mozilla/5.0 (Windows NT 10.0; Win64; x64) AppleWebKit/537.36 (KHTML, like Gecko) Chrome/78.0.3904.108 Safari/537.36" etag="kW9ZroI3T3xfSSFq31uv" version="12.3.5" type="github" pages="1">
  <diagram id="8fsPiEIJAXThoTwZe8MG" name="Page-1">
    <mxGraphModel dx="971" dy="516" grid="1" gridSize="10" guides="1" tooltips="1" connect="1" arrows="1" fold="1" page="1" pageScale="1" pageWidth="1600" pageHeight="1200" math="0" shadow="0">
      <root>
        <mxCell id="0"/>
        <mxCell id="1" parent="0"/>
        <mxCell id="2HLYA1HZswzqJ7tbZCIl-1" value=":CyberMiner Control" style="shape=umlLifeline;perimeter=lifelinePerimeter;whiteSpace=wrap;html=1;container=1;collapsible=0;recursiveResize=0;outlineConnect=0;" parent="1" vertex="1">
          <mxGeometry x="70" y="30" width="90" height="690" as="geometry"/>
        </mxCell>
        <mxCell id="2HLYA1HZswzqJ7tbZCIl-2" value="" style="html=1;points=[];perimeter=orthogonalPerimeter;" parent="2HLYA1HZswzqJ7tbZCIl-1" vertex="1">
          <mxGeometry x="40" y="90" width="10" height="420" as="geometry"/>
        </mxCell>
        <mxCell id="2HLYA1HZswzqJ7tbZCIl-3" value=":KwicRecordStorageAdapter" style="shape=umlLifeline;perimeter=lifelinePerimeter;whiteSpace=wrap;html=1;container=1;collapsible=0;recursiveResize=0;outlineConnect=0;" parent="1" vertex="1">
          <mxGeometry x="260" y="30" width="170" height="690" as="geometry"/>
        </mxCell>
        <mxCell id="2HLYA1HZswzqJ7tbZCIl-4" value="" style="html=1;points=[];perimeter=orthogonalPerimeter;" parent="2HLYA1HZswzqJ7tbZCIl-3" vertex="1">
          <mxGeometry x="80" y="80" width="10" height="340" as="geometry"/>
        </mxCell>
        <mxCell id="2HLYA1HZswzqJ7tbZCIl-5" value="setupCache()" style="endArrow=classic;html=1;entryX=0;entryY=0.088;entryDx=0;entryDy=0;entryPerimeter=0;" parent="1" target="2HLYA1HZswzqJ7tbZCIl-4" edge="1">
          <mxGeometry y="10" width="50" height="50" relative="1" as="geometry">
            <mxPoint x="120" y="140" as="sourcePoint"/>
            <mxPoint x="170" y="90" as="targetPoint"/>
            <mxPoint as="offset"/>
          </mxGeometry>
        </mxCell>
        <mxCell id="2HLYA1HZswzqJ7tbZCIl-6" value=":KwicMasterControl" style="shape=umlLifeline;perimeter=lifelinePerimeter;whiteSpace=wrap;html=1;container=1;collapsible=0;recursiveResize=0;outlineConnect=0;" parent="1" vertex="1">
          <mxGeometry x="480" y="30" width="170" height="690" as="geometry"/>
        </mxCell>
        <mxCell id="2HLYA1HZswzqJ7tbZCIl-7" value="" style="html=1;points=[];perimeter=orthogonalPerimeter;" parent="2HLYA1HZswzqJ7tbZCIl-6" vertex="1">
          <mxGeometry x="80" y="80" width="10" height="340" as="geometry"/>
        </mxCell>
        <mxCell id="2HLYA1HZswzqJ7tbZCIl-8" value="readLinesFromIndex()" style="endArrow=classic;html=1;" parent="1" edge="1">
          <mxGeometry y="10" width="50" height="50" relative="1" as="geometry">
            <mxPoint x="350" y="150" as="sourcePoint"/>
            <mxPoint x="560" y="150" as="targetPoint"/>
            <mxPoint as="offset"/>
          </mxGeometry>
        </mxCell>
        <mxCell id="2HLYA1HZswzqJ7tbZCIl-10" value="KWIC index" style="endArrow=none;dashed=1;html=1;exitX=1.2;exitY=0.297;exitDx=0;exitDy=0;exitPerimeter=0;startArrow=classic;startFill=1;entryX=-0.2;entryY=0.241;entryDx=0;entryDy=0;entryPerimeter=0;" parent="1" target="2HLYA1HZswzqJ7tbZCIl-7" edge="1">
          <mxGeometry x="0.5157" y="10" width="50" height="50" relative="1" as="geometry">
            <mxPoint x="350" y="189.98000000000013" as="sourcePoint"/>
            <mxPoint x="549" y="189.9999999999999" as="targetPoint"/>
            <mxPoint as="offset"/>
          </mxGeometry>
        </mxCell>
        <mxCell id="2HLYA1HZswzqJ7tbZCIl-11" value="done" style="endArrow=none;dashed=1;html=1;exitX=1.2;exitY=0.297;exitDx=0;exitDy=0;exitPerimeter=0;startArrow=classic;startFill=1;" parent="1" edge="1">
          <mxGeometry x="0.5157" y="10" width="50" height="50" relative="1" as="geometry">
            <mxPoint x="120" y="291.98000000000013" as="sourcePoint"/>
            <mxPoint x="336" y="290" as="targetPoint"/>
            <mxPoint as="offset"/>
          </mxGeometry>
        </mxCell>
        <mxCell id="2HLYA1HZswzqJ7tbZCIl-12" value="internalFormatting()" style="endArrow=classic;html=1;entryX=1.3;entryY=0.441;entryDx=0;entryDy=0;entryPerimeter=0;" parent="1" target="2HLYA1HZswzqJ7tbZCIl-4" edge="1">
          <mxGeometry y="10" width="50" height="50" relative="1" as="geometry">
            <mxPoint x="350" y="220" as="sourcePoint"/>
            <mxPoint x="410" y="310" as="targetPoint"/>
            <mxPoint as="offset"/>
            <Array as="points">
              <mxPoint x="410" y="220"/>
              <mxPoint x="410" y="260"/>
            </Array>
          </mxGeometry>
        </mxCell>
      </root>
    </mxGraphModel>
  </diagram>
</mxfile>
